<?xml version="1.0" encoding="utf-8"?>
<!-- Generator: Adobe Illustrator 24.1.1, SVG Export Plug-In . SVG Version: 6.00 Build 0)  -->
<svg version="1.1" id="Layer_1" xmlns="http://www.w3.org/2000/svg" xmlns:xlink="http://www.w3.org/1999/xlink" x="0px" y="0px"
	 viewBox="0 0 226.93 74.2" style="enable-background:new 0 0 226.93 74.2;" xml:space="preserve">
<style type="text/css">
	.Arched_x0020_Green{fill:url(#SVGID_1_);stroke:#FFFFFF;stroke-width:0.25;stroke-miterlimit:1;}
	.st0{fill:#FFFFFF;}
</style>
<linearGradient id="SVGID_1_" gradientUnits="userSpaceOnUse" x1="-9.7059" y1="108.9648" x2="-8.9988" y2="108.2577">
	<stop  offset="0" style="stop-color:#FFFFFF"/>
	<stop  offset="0.9831" style="stop-color:#FFFFFF"/>
</linearGradient>
<g>
	<path class="st0" d="M26.12,37.57c5.49,0,9.95-4.45,9.95-9.95c0-5.49-4.46-9.95-9.95-9.95c-5.5,0-9.95,4.46-9.95,9.95
		C16.17,33.11,20.63,37.57,26.12,37.57z"/>
	<path class="st0" d="M26.83,0.92c-0.66,0-1.31,0-1.98,0C17.81,1.4,12.27,4.17,8.25,8.19c-3.85,3.85-7.06,9.79-7.36,16.79
		c0,0.6,0,1.19,0,1.79c0.15,5.39,2.19,9.51,4.4,13.29c1.06,1.81,2.15,3.6,3.23,5.4C8.43,38.65,8.3,28.15,8.3,27.44
		c0-9.67,7.84-17.5,17.5-17.5c9.67,0,17.5,7.84,17.5,17.5c0,9.66-7.84,17.5-17.5,17.5c-3.09,0-6-0.81-8.52-2.22v17.02
		c2.82,4.51,5.66,9.02,8.49,13.55c0.06,0,13.8-21.75,20.28-32.69c2.18-3.69,4.36-7.64,4.67-12.75c0-1.32,0-2.63,0-3.95
		C48.73,10.38,40.75,2.43,26.83,0.92z"/>
</g>
<path class="st0" d="M72.22,41.1H60.56l-1.54,4.01h-5.79l10.93-27.03h4.48l10.93,27.03h-5.79L72.22,41.1z M62.34,36.47h8.11
	l-4.05-10.51L62.34,36.47z"/>
<path class="st0" d="M102.74,17.62c6.53,0,12.16,3.82,13.9,9.81h-5.95c-1.47-3.13-4.56-5.02-7.96-5.02c-4.79,0-8.84,3.67-8.84,9.19
	c0,5.52,4.05,9.19,8.84,9.19c3.4,0,6.49-1.89,7.96-5.02h5.95c-1.74,5.99-7.38,9.81-13.9,9.81c-7.99,0-14.48-5.67-14.48-13.98
	C88.26,23.3,94.75,17.62,102.74,17.62z"/>
<path class="st0" d="M134.78,18.08v27.03h-5.56V18.08H134.78z"/>
<path class="st0" d="M149.27,18.08h16.41v4.71h-10.85v8.03h8.88v4.71h-8.88v9.58h-5.56V18.08z"/>
<path class="st0" d="M184,18.08v27.03h-5.56V18.08H184z"/>
<path class="st0" d="M211.04,17.62c6.53,0,12.17,3.82,13.9,9.81h-5.94c-1.47-3.13-4.56-5.02-7.96-5.02c-4.79,0-8.84,3.67-8.84,9.19
	c0,5.52,4.06,9.19,8.84,9.19c3.4,0,6.49-1.89,7.96-5.02h5.94c-1.74,5.99-7.37,9.81-13.9,9.81c-7.99,0-14.48-5.67-14.48-13.98
	C196.56,23.3,203.05,17.62,211.04,17.62z"/>
<g>
	<path class="st0" d="M57.33,57.6h2.24c0,0.04,0,0.09,0,0.16c0.01,0.18,0.01,0.31,0.01,0.37c0,0.79-0.23,1.41-0.68,1.85
		c-0.46,0.44-1.1,0.66-1.93,0.66c-0.46,0-0.88-0.07-1.24-0.2c-0.36-0.14-0.68-0.34-0.95-0.62c-0.27-0.27-0.47-0.59-0.62-0.96
		c-0.14-0.37-0.21-0.76-0.21-1.18c0-0.43,0.07-0.82,0.22-1.18s0.36-0.68,0.65-0.95c0.28-0.27,0.6-0.48,0.97-0.62
		s0.77-0.21,1.19-0.21c0.45,0,0.84,0.08,1.19,0.24c0.35,0.16,0.66,0.41,0.94,0.75l-0.67,0.5c-0.19-0.22-0.41-0.39-0.64-0.49
		c-0.24-0.11-0.51-0.16-0.8-0.16c-0.61,0-1.11,0.2-1.5,0.59c-0.39,0.39-0.58,0.9-0.58,1.53c0,0.64,0.19,1.16,0.58,1.55
		c0.39,0.4,0.89,0.6,1.51,0.6c0.52,0,0.94-0.12,1.24-0.37c0.3-0.25,0.45-0.58,0.45-1v-0.08h-1.36V57.6z"/>
	<path class="st0" d="M61.65,60.5v-5.65h0.92v4.83h2.05v0.82H61.65z"/>
	<path class="st0" d="M71.99,57.68c0,0.4-0.08,0.78-0.23,1.14c-0.15,0.36-0.37,0.68-0.66,0.96c-0.29,0.28-0.62,0.5-0.98,0.64
		s-0.75,0.22-1.15,0.22c-0.41,0-0.79-0.08-1.16-0.23c-0.37-0.15-0.7-0.37-0.98-0.64c-0.29-0.28-0.51-0.6-0.66-0.95
		c-0.15-0.35-0.22-0.74-0.22-1.14c0-0.4,0.07-0.78,0.22-1.14c0.15-0.36,0.37-0.68,0.66-0.96c0.29-0.28,0.61-0.49,0.98-0.64
		c0.37-0.15,0.75-0.22,1.16-0.22c0.41,0,0.79,0.07,1.16,0.22c0.36,0.15,0.69,0.36,0.98,0.64c0.29,0.29,0.51,0.61,0.66,0.97
		C71.92,56.9,71.99,57.28,71.99,57.68z M71.03,57.68c0-0.29-0.05-0.56-0.16-0.81c-0.1-0.26-0.25-0.49-0.45-0.69
		c-0.19-0.2-0.41-0.35-0.66-0.46c-0.25-0.11-0.52-0.16-0.79-0.16s-0.54,0.05-0.79,0.16c-0.25,0.11-0.47,0.26-0.67,0.46
		c-0.2,0.2-0.34,0.43-0.45,0.68c-0.1,0.26-0.15,0.53-0.15,0.82c0,0.29,0.05,0.56,0.15,0.81c0.1,0.25,0.25,0.48,0.45,0.68
		c0.2,0.2,0.42,0.35,0.67,0.46c0.25,0.11,0.51,0.16,0.79,0.16c0.28,0,0.54-0.05,0.79-0.16c0.25-0.11,0.47-0.26,0.67-0.46
		c0.2-0.2,0.35-0.43,0.45-0.68C70.98,58.23,71.03,57.96,71.03,57.68z"/>
	<path class="st0" d="M74.15,60.5v-5.65h1.42c0.41,0,0.71,0.02,0.9,0.07c0.19,0.04,0.36,0.12,0.5,0.22c0.17,0.13,0.31,0.3,0.41,0.51
		c0.1,0.21,0.14,0.44,0.14,0.69c0,0.3-0.07,0.55-0.21,0.75c-0.14,0.2-0.34,0.34-0.61,0.42c0.33,0.05,0.59,0.2,0.78,0.45
		c0.19,0.25,0.28,0.56,0.28,0.94c0,0.23-0.04,0.45-0.12,0.65c-0.08,0.21-0.19,0.38-0.34,0.52c-0.15,0.16-0.35,0.27-0.58,0.33
		s-0.61,0.1-1.15,0.1H74.15z M75.05,57.23h0.35c0.44,0,0.75-0.06,0.93-0.18c0.18-0.12,0.27-0.32,0.27-0.6
		c0-0.31-0.08-0.53-0.25-0.65c-0.17-0.13-0.48-0.19-0.95-0.19h-0.35V57.23z M75.05,59.73h0.32c0.32,0,0.56-0.01,0.72-0.04
		c0.16-0.03,0.29-0.07,0.38-0.13c0.11-0.08,0.2-0.18,0.26-0.3c0.06-0.13,0.09-0.26,0.09-0.42c0-0.18-0.04-0.34-0.11-0.47
		s-0.18-0.24-0.32-0.31c-0.09-0.04-0.19-0.08-0.3-0.1c-0.11-0.02-0.26-0.03-0.45-0.03h-0.28h-0.32V59.73z"/>
	<path class="st0" d="M83.55,60.5l-0.64-1.46h-2.24l-0.66,1.46h-0.96l2.74-5.88l2.73,5.88H83.55z M81.01,58.28h1.57L82,56.99
		c-0.03-0.08-0.07-0.18-0.1-0.28c-0.04-0.11-0.07-0.23-0.11-0.36c-0.03,0.12-0.06,0.24-0.1,0.35c-0.03,0.11-0.07,0.21-0.11,0.29
		L81.01,58.28z"/>
	<path class="st0" d="M86.15,60.5v-5.65h0.92v4.83h2.05v0.82H86.15z"/>
	<path class="st0" d="M94.47,60.5v-5.65h1.24c0.81,0,1.37,0.04,1.7,0.12s0.62,0.22,0.86,0.41c0.33,0.25,0.57,0.57,0.74,0.96
		s0.25,0.84,0.25,1.34c0,0.5-0.08,0.95-0.25,1.33c-0.17,0.39-0.42,0.71-0.74,0.96c-0.25,0.19-0.53,0.33-0.84,0.41
		c-0.32,0.08-0.81,0.12-1.47,0.12h-0.25H94.47z M95.39,59.67h0.77c0.42,0,0.74-0.03,0.96-0.08s0.4-0.15,0.55-0.29
		c0.21-0.18,0.37-0.41,0.48-0.68s0.16-0.59,0.16-0.95s-0.05-0.68-0.16-0.95s-0.27-0.5-0.48-0.68c-0.16-0.13-0.35-0.23-0.57-0.29
		s-0.57-0.08-1.04-0.08h-0.33h-0.33V59.67z"/>
	<path class="st0" d="M101.43,60.5v-5.65h3.15v0.78h-2.23v1.42h2.23v0.81h-2.23v1.83h2.23v0.82H101.43z"/>
	<path class="st0" d="M106.42,59.36l0.73-0.34c0.07,0.25,0.2,0.44,0.38,0.58c0.19,0.13,0.42,0.2,0.71,0.2
		c0.27,0,0.49-0.08,0.65-0.23c0.16-0.15,0.24-0.35,0.24-0.61c0-0.33-0.28-0.63-0.83-0.89c-0.08-0.04-0.14-0.07-0.18-0.08
		c-0.62-0.3-1.04-0.58-1.24-0.82c-0.21-0.25-0.31-0.55-0.31-0.9c0-0.46,0.16-0.83,0.47-1.12c0.31-0.29,0.72-0.43,1.23-0.43
		c0.42,0,0.77,0.08,1.05,0.24c0.28,0.16,0.47,0.39,0.58,0.69l-0.72,0.37c-0.11-0.18-0.24-0.31-0.37-0.39
		c-0.13-0.08-0.29-0.12-0.46-0.12c-0.25,0-0.44,0.06-0.59,0.19s-0.22,0.3-0.22,0.52c0,0.34,0.32,0.66,0.96,0.95
		c0.05,0.02,0.09,0.04,0.12,0.05c0.56,0.26,0.94,0.51,1.15,0.75s0.31,0.55,0.31,0.92c0,0.54-0.17,0.96-0.51,1.28
		c-0.34,0.32-0.79,0.47-1.37,0.47c-0.48,0-0.88-0.11-1.18-0.33C106.72,60.09,106.51,59.78,106.42,59.36z"/>
	<path class="st0" d="M114.01,55.62v4.87h-0.92v-4.87h-1.5v-0.78h3.91v0.78H114.01z"/>
	<path class="st0" d="M117.33,60.5v-5.65h0.92v5.65H117.33z"/>
	<path class="st0" d="M120.68,60.5v-5.88l3.59,3.46c0.1,0.1,0.2,0.2,0.3,0.31c0.1,0.11,0.21,0.24,0.32,0.37v-3.92h0.85v5.87
		l-3.66-3.52c-0.1-0.09-0.19-0.2-0.28-0.3c-0.09-0.11-0.18-0.22-0.26-0.33v3.93H120.68z"/>
	<path class="st0" d="M131.87,60.5l-0.64-1.46h-2.24l-0.66,1.46h-0.97l2.74-5.88l2.73,5.88H131.87z M129.33,58.28h1.58l-0.58-1.29
		c-0.03-0.08-0.07-0.18-0.1-0.28c-0.04-0.11-0.07-0.23-0.11-0.36c-0.03,0.12-0.06,0.24-0.1,0.35c-0.04,0.11-0.07,0.21-0.11,0.29
		L129.33,58.28z"/>
	<path class="st0" d="M135.87,55.62v4.87h-0.92v-4.87h-1.5v-0.78h3.91v0.78H135.87z"/>
	<path class="st0" d="M139.19,60.5v-5.65h0.92v5.65H139.19z"/>
	<path class="st0" d="M148.33,57.68c0,0.4-0.08,0.78-0.23,1.14c-0.15,0.36-0.37,0.68-0.66,0.96c-0.29,0.28-0.62,0.5-0.98,0.64
		s-0.75,0.22-1.15,0.22c-0.41,0-0.79-0.08-1.16-0.23s-0.7-0.37-0.98-0.64c-0.29-0.28-0.51-0.6-0.66-0.95
		c-0.15-0.35-0.22-0.74-0.22-1.14c0-0.4,0.07-0.78,0.22-1.14c0.15-0.36,0.37-0.68,0.66-0.96c0.29-0.28,0.62-0.49,0.98-0.64
		s0.75-0.22,1.16-0.22c0.41,0,0.79,0.07,1.16,0.22s0.69,0.36,0.98,0.64c0.29,0.29,0.51,0.61,0.66,0.97
		C148.25,56.9,148.33,57.28,148.33,57.68z M147.37,57.68c0-0.29-0.05-0.56-0.16-0.81c-0.1-0.26-0.25-0.49-0.45-0.69
		c-0.19-0.2-0.41-0.35-0.66-0.46c-0.25-0.11-0.51-0.16-0.79-0.16s-0.54,0.05-0.79,0.16c-0.25,0.11-0.47,0.26-0.67,0.46
		c-0.2,0.2-0.34,0.43-0.45,0.68c-0.1,0.26-0.15,0.53-0.15,0.82c0,0.29,0.05,0.56,0.15,0.81c0.1,0.25,0.25,0.48,0.45,0.68
		c0.2,0.2,0.42,0.35,0.67,0.46c0.25,0.11,0.51,0.16,0.79,0.16c0.28,0,0.54-0.05,0.79-0.16c0.25-0.11,0.47-0.26,0.67-0.46
		c0.2-0.2,0.35-0.43,0.45-0.68C147.32,58.23,147.37,57.96,147.37,57.68z"/>
	<path class="st0" d="M150.49,60.5v-5.88l3.59,3.46c0.1,0.1,0.2,0.2,0.3,0.31c0.1,0.11,0.21,0.24,0.32,0.37v-3.92h0.85v5.87
		l-3.66-3.52c-0.1-0.09-0.19-0.2-0.28-0.3c-0.09-0.11-0.18-0.22-0.26-0.33v3.93H150.49z"/>
	<path class="st0" d="M166.05,57.7c-0.01-0.04-0.03-0.16-0.05-0.36c-0.02-0.17-0.04-0.3-0.05-0.41c-0.02,0.13-0.06,0.26-0.1,0.39
		c-0.04,0.13-0.1,0.26-0.16,0.39l-1.48,3.01l-1.48-3.07c-0.06-0.13-0.12-0.25-0.16-0.37c-0.04-0.12-0.08-0.24-0.12-0.35
		c0,0.12-0.01,0.24-0.03,0.37s-0.04,0.27-0.08,0.41l-0.61,2.78h-0.84l1.33-5.89l1.67,3.57c0.03,0.06,0.06,0.15,0.12,0.28
		s0.12,0.29,0.19,0.49c0.05-0.16,0.14-0.37,0.25-0.62c0.03-0.07,0.05-0.12,0.07-0.15l1.63-3.56l1.37,5.89h-0.85L166.05,57.7z"/>
	<path class="st0" d="M173.1,60.5l-0.64-1.46h-2.24l-0.66,1.46h-0.97l2.74-5.88l2.73,5.88H173.1z M170.56,58.28h1.58l-0.58-1.29
		c-0.03-0.08-0.07-0.18-0.1-0.28c-0.04-0.11-0.07-0.23-0.11-0.36c-0.03,0.12-0.06,0.24-0.1,0.35c-0.04,0.11-0.07,0.21-0.11,0.29
		L170.56,58.28z"/>
	<path class="st0" d="M175.71,60.5v-5.88l3.59,3.46c0.1,0.1,0.2,0.2,0.3,0.31c0.1,0.11,0.21,0.24,0.32,0.37v-3.92h0.85v5.87
		l-3.66-3.52c-0.1-0.09-0.19-0.2-0.28-0.3c-0.09-0.11-0.18-0.22-0.26-0.33v3.93H175.71z"/>
	<path class="st0" d="M186.89,60.5l-0.64-1.46h-2.24l-0.66,1.46h-0.97l2.74-5.88l2.73,5.88H186.89z M184.35,58.28h1.58l-0.58-1.29
		c-0.03-0.08-0.07-0.18-0.1-0.28c-0.04-0.11-0.07-0.23-0.11-0.36c-0.03,0.12-0.06,0.24-0.1,0.35c-0.04,0.11-0.07,0.21-0.11,0.29
		L184.35,58.28z"/>
	<path class="st0" d="M192.5,57.6h2.24c0,0.04,0,0.09,0,0.16c0.01,0.18,0.01,0.31,0.01,0.37c0,0.79-0.23,1.41-0.68,1.85
		c-0.46,0.44-1.1,0.66-1.93,0.66c-0.46,0-0.88-0.07-1.24-0.2c-0.36-0.14-0.68-0.34-0.95-0.62c-0.27-0.27-0.47-0.59-0.62-0.96
		c-0.14-0.37-0.21-0.76-0.21-1.18c0-0.43,0.07-0.82,0.22-1.18c0.15-0.36,0.36-0.68,0.65-0.95c0.28-0.27,0.6-0.48,0.97-0.62
		c0.37-0.14,0.77-0.21,1.19-0.21c0.45,0,0.84,0.08,1.19,0.24c0.35,0.16,0.67,0.41,0.94,0.75l-0.67,0.5
		c-0.19-0.22-0.41-0.39-0.64-0.49c-0.24-0.11-0.51-0.16-0.8-0.16c-0.61,0-1.11,0.2-1.5,0.59c-0.39,0.39-0.58,0.9-0.58,1.53
		c0,0.64,0.19,1.16,0.58,1.55c0.39,0.4,0.89,0.6,1.51,0.6c0.52,0,0.94-0.12,1.24-0.37c0.3-0.25,0.45-0.58,0.45-1v-0.08h-1.36V57.6z"
		/>
	<path class="st0" d="M196.82,60.5v-5.65h3.15v0.78h-2.23v1.42h2.23v0.81h-2.23v1.83h2.23v0.82H196.82z"/>
	<path class="st0" d="M206.75,57.7c-0.01-0.04-0.03-0.16-0.05-0.36c-0.02-0.17-0.04-0.3-0.05-0.41c-0.02,0.13-0.06,0.26-0.1,0.39
		c-0.04,0.13-0.1,0.26-0.16,0.39l-1.48,3.01l-1.48-3.07c-0.06-0.13-0.12-0.25-0.16-0.37c-0.04-0.12-0.08-0.24-0.12-0.35
		c0,0.12-0.01,0.24-0.03,0.37s-0.04,0.27-0.08,0.41l-0.61,2.78h-0.84l1.33-5.89l1.67,3.57c0.03,0.06,0.06,0.15,0.12,0.28
		s0.12,0.29,0.19,0.49c0.05-0.16,0.14-0.37,0.25-0.62c0.03-0.07,0.05-0.12,0.07-0.15l1.63-3.56l1.37,5.89h-0.85L206.75,57.7z"/>
	<path class="st0" d="M210.06,60.5v-5.65h3.15v0.78h-2.23v1.42h2.23v0.81h-2.23v1.83h2.23v0.82H210.06z"/>
	<path class="st0" d="M215.38,60.5v-5.88l3.59,3.46c0.1,0.1,0.2,0.2,0.3,0.31c0.1,0.11,0.21,0.24,0.32,0.37v-3.92h0.85v5.87
		l-3.66-3.52c-0.1-0.09-0.19-0.2-0.28-0.3c-0.09-0.11-0.18-0.22-0.26-0.33v3.93H215.38z"/>
	<path class="st0" d="M224.66,55.62v4.87h-0.92v-4.87h-1.5v-0.78h3.91v0.78H224.66z"/>
</g>
</svg>
